# xmcd
#
# Track frame offsets: 
#        150
#        13795
#        33709
#        54627
#        70377
#        93022
#        111095
#        129141
#        150962
#        170911
#
# Disc length: 2481 seconds
#
# Revision: 0
# Processed by: cddbd v1.5.2PL0 Copyright (c) Steve Scherf et al.
# Submitted via: ExactAudioCopy v0.99pb5
#
DISCID=7c09af0a
DTITLE=л┴лч-д¤лшлєл╘лы - л┘л╣л╚д¤л╗льлпл╖лчлє (Goodies Seris)
DYEAR=2001
DGENRE=JPop
TTITLE0=▌╝▀г∙√к╪╧¤кь
TTITLE1=▀╠кдк╟┌╗эн
TTITLE2=л╜лжлыд¤л╜лжлыд¤л╜лжлыгнї┌хук╬╩╢гн
TTITLE3=▐чк╬┘гюёк╧ъг
TTITLE4=▌шк╖к▀к╬кцкпки
TTITLE5=л┴лчл├л╫лыгнкэкжк╜кпк╬╘єгн
TTITLE6=╪╬кьк╩їо
TTITLE7=▀╠кдк╟┌╗энгнг▓гн▌шк╖к▀к└к▒к╟╪∙кькыкшкжк╦гн
TTITLE8=хп╒═к┐к┴к╬╪╕╩░
TTITLE9=єык╬штк╬╥│
EXTD=
EXTT0=
EXTT1=
EXTT2=
EXTT3=
EXTT4=
EXTT5=
EXTT6=
EXTT7=
EXTT8=
EXTT9=
PLAYORDER=
